<svg width="175" height="63" viewBox="0 0 175 63" fill="none" xmlns="http://www.w3.org/2000/svg">
<g id="Group 47208">
<path id="Vector" d="M23.716 57.6991L22.7718 58.6352C20.7988 60.5914 18.3343 61.8696 15.6445 62.3312C14.8961 62.46 14.1406 62.524 13.3859 62.524C11.6331 62.524 9.88531 62.1797 8.23441 61.5018C5.87322 60.5323 3.85712 58.939 2.40353 56.8939C0.830831 54.6817 0 52.0506 0 49.2836V7.89561L12.197 0V49.2836C12.197 49.3476 12.197 49.4564 12.2257 49.5844C12.4266 51.3016 13.9168 59.6908 23.716 57.6991Z" fill="white"/>
<path id="Vector_2" d="M35.3206 44.1898L24.6554 55.7501C14.9235 57.7557 13.4435 49.3077 13.244 47.5793C13.2981 47.825 13.4563 48.138 13.9159 48.3293C14.6164 48.6215 15.0197 48.2154 15.1522 48.0821L24.1908 38.9967C24.2528 38.9344 34.0189 34.804 34.0189 34.804L35.3206 43.707C35.4531 43.8402 35.4531 44.0558 35.3206 44.1891V44.1898Z" fill="white"/>
<g id="Land Expeditions">
<path d="M58.6154 25.183H62.655V27.9352H55V15H58.6154V25.183Z" fill="white"/>
<path d="M72.2876 25.8252H67.6761L66.9752 27.9352H63.1754L67.9159 15H72.0847L76.8068 27.9352H72.9885L72.2876 25.8252ZM71.3837 23.073L69.9818 18.8897L68.5984 23.073H71.3837Z" fill="white"/>
<path d="M90.0302 27.9352H86.4149L81.6005 20.7062V27.9352H77.9851V15H81.6005L86.4149 22.3208V15H90.0302V27.9352Z" fill="white"/>
<path d="M97.236 15C98.601 15 99.7938 15.2752 100.814 15.8256C101.847 16.3638 102.641 17.1222 103.194 18.1008C103.747 19.0793 104.024 20.1985 104.024 21.4584C104.024 22.7061 103.741 23.8192 103.176 24.7977C102.622 25.7762 101.829 26.5469 100.796 27.1095C99.7754 27.66 98.5887 27.9352 97.236 27.9352H92.0897V15H97.236ZM96.9593 24.761C98.0169 24.761 98.847 24.4736 99.4495 23.8987C100.052 23.3238 100.353 22.5103 100.353 21.4584C100.353 20.3942 100.052 19.5747 99.4495 18.9998C98.847 18.4127 98.0169 18.1191 96.9593 18.1191H95.705V24.761H96.9593Z" fill="white"/>
<path d="M58.6154 34.817V36.927H62.7657V39.6608H58.6154V41.991H63.319V44.8716H55V31.9364H63.319V34.817H58.6154Z" fill="white"/>
<path d="M73.2401 44.8716L70.713 41.2204L68.5549 44.8716H64.4415L68.6656 38.248L64.2939 31.9364H68.5549L71.0082 35.4959L73.111 31.9364H77.2244L73.0557 38.4498L77.5011 44.8716H73.2401Z" fill="white"/>
<path d="M89.016 36.2481C89.016 37.031 88.8315 37.7465 88.4626 38.3948C88.106 39.0309 87.5588 39.5446 86.8209 39.936C86.0954 40.3152 85.2039 40.5048 84.1463 40.5048H82.3571V44.8716H78.7417V31.9364H84.1463C85.1916 31.9364 86.077 32.1199 86.8025 32.4868C87.5403 32.8538 88.0937 33.3614 88.4626 34.0097C88.8315 34.658 89.016 35.4041 89.016 36.2481ZM83.7958 37.6425C84.8165 37.6425 85.3268 37.1777 85.3268 36.2481C85.3268 35.3063 84.8165 34.8353 83.7958 34.8353H82.3571V37.6425H83.7958Z" fill="white"/>
<path d="M94.0838 34.817V36.927H98.2341V39.6608H94.0838V41.991H98.7875V44.8716H90.4684V31.9364H98.7875V34.817H94.0838Z" fill="white"/>
<path d="M105.72 31.9364C107.085 31.9364 108.278 32.2116 109.299 32.762C110.332 33.3002 111.125 34.0586 111.678 35.0372C112.232 36.0157 112.508 37.1349 112.508 38.3948C112.508 39.6425 112.226 40.7556 111.66 41.7341C111.107 42.7126 110.313 43.4833 109.28 44.0459C108.26 44.5963 107.073 44.8716 105.72 44.8716H100.574V31.9364H105.72ZM105.444 41.6974C106.501 41.6974 107.331 41.41 107.934 40.8351C108.536 40.2602 108.838 39.4467 108.838 38.3948C108.838 37.3306 108.536 36.5111 107.934 35.9362C107.331 35.3491 106.501 35.0555 105.444 35.0555H104.189V41.6974H105.444Z" fill="white"/>
<path d="M117.753 31.9364V44.8716H114.138V31.9364H117.753Z" fill="white"/>
<path d="M129.607 31.9364V34.7986H126.139V44.8716H122.524V34.7986H119.093V31.9364H129.607Z" fill="white"/>
<path d="M134.56 31.9364V44.8716H130.945V31.9364H134.56Z" fill="white"/>
<path d="M142.854 45C141.636 45 140.517 44.7187 139.496 44.156C138.476 43.5811 137.664 42.7922 137.062 41.7891C136.471 40.7739 136.176 39.6302 136.176 38.3581C136.176 37.086 136.471 35.9484 137.062 34.9454C137.664 33.9302 138.476 33.1412 139.496 32.5786C140.517 32.0159 141.636 31.7346 142.854 31.7346C144.083 31.7346 145.202 32.0159 146.211 32.5786C147.231 33.1412 148.037 33.9302 148.627 34.9454C149.217 35.9484 149.512 37.086 149.512 38.3581C149.512 39.6302 149.217 40.7739 148.627 41.7891C148.037 42.7922 147.231 43.5811 146.211 44.156C145.19 44.7187 144.071 45 142.854 45ZM142.854 41.6607C143.776 41.6607 144.501 41.361 145.03 40.7617C145.571 40.1623 145.842 39.3611 145.842 38.3581C145.842 37.3306 145.571 36.5233 145.03 35.9362C144.501 35.3368 143.776 35.0372 142.854 35.0372C141.919 35.0372 141.187 35.3368 140.658 35.9362C140.13 36.5233 139.865 37.3306 139.865 38.3581C139.865 39.3734 140.13 40.1807 140.658 40.78C141.187 41.3671 141.919 41.6607 142.854 41.6607Z" fill="white"/>
<path d="M163.183 44.8716H159.567L154.753 37.6425V44.8716H151.138V31.9364H154.753L159.567 39.2571V31.9364H163.183V44.8716Z" fill="white"/>
<path d="M170.149 45C168.636 45 167.394 44.6453 166.423 43.9358C165.451 43.2141 164.929 42.1867 164.855 40.8534H168.71C168.747 41.306 168.882 41.6362 169.116 41.8442C169.349 42.0521 169.651 42.1561 170.02 42.1561C170.352 42.1561 170.622 42.0766 170.831 41.9176C171.053 41.7463 171.163 41.5139 171.163 41.2204C171.163 40.8412 170.985 40.5476 170.628 40.3397C170.272 40.1317 169.694 39.8993 168.894 39.6425C168.046 39.3611 167.357 39.092 166.829 38.8351C166.312 38.566 165.857 38.1807 165.464 37.6792C165.082 37.1655 164.892 36.4989 164.892 35.6793C164.892 34.8476 165.101 34.1381 165.519 33.551C165.937 32.9516 166.515 32.4991 167.253 32.1933C167.991 31.8875 168.827 31.7346 169.761 31.7346C171.274 31.7346 172.479 32.0893 173.377 32.7987C174.287 33.496 174.773 34.4806 174.834 35.7527H170.905C170.893 35.3613 170.77 35.0677 170.536 34.872C170.315 34.6763 170.026 34.5785 169.669 34.5785C169.399 34.5785 169.177 34.658 169.005 34.817C168.833 34.976 168.747 35.2023 168.747 35.4959C168.747 35.7405 168.839 35.9546 169.024 36.138C169.22 36.3093 169.46 36.4622 169.743 36.5967C170.026 36.719 170.444 36.8781 170.997 37.0738C171.821 37.3551 172.498 37.6364 173.026 37.9178C173.567 38.1869 174.029 38.5722 174.41 39.0737C174.803 39.5629 175 40.1868 175 40.9451C175 41.7157 174.803 42.4068 174.41 43.0184C174.029 43.63 173.469 44.1132 172.731 44.4679C172.006 44.8226 171.145 45 170.149 45Z" fill="white"/>
</g>
</g>
</svg>
