<svg width="64" height="64" viewBox="0 0 64 64" fill="none" xmlns="http://www.w3.org/2000/svg">
<g id="settings 1">
<path id="Vector" fill-rule="evenodd" clip-rule="evenodd" d="M55.6623 49.813L49.7498 55.7255L42.1822 53.6173L40.018 54.5099L36.1329 61.3307H27.774L23.9105 54.4867L21.7485 53.5801L14.1816 55.6622L8.27192 49.7526L10.3801 42.185L9.4873 40.0203L2.66667 36.1324V27.7738L9.51354 23.9103L10.4199 21.7485L8.33788 14.1816L14.2453 8.27424L21.8129 10.3853L23.9753 9.49353L27.8545 2.66675H36.2155L40.079 9.51362L42.2408 10.42L49.8064 8.3383L55.723 14.2464L53.6146 21.8152L54.5066 23.978L61.3333 27.8573V36.2183L54.4871 40.0814L53.5799 42.2481L55.6623 49.813ZM47.949 41.8874L50.2738 36.335L56 33.1039V30.9609L50.2759 27.7082L47.9843 22.152L49.7489 15.8178L48.2319 14.3031L41.8784 16.0513L36.3319 13.7257L33.1011 8.00008H30.9581L27.7055 13.7242L22.1487 16.0159L15.8134 14.2486L14.3033 15.7587L16.0512 22.1109L13.7256 27.6574L8.00001 30.8882V33.0336L13.7195 36.2938L16.0103 41.8482L14.2454 48.1836L15.7586 49.6967L22.1108 47.9489L27.6571 50.2744L30.8878 55.9974H33.0329L36.2906 50.2781L41.8454 47.9871L48.1808 49.752L49.6965 48.2362L47.949 41.8874ZM32 42.6667C26.109 42.6667 21.3333 37.8911 21.3333 32.0001C21.3333 26.109 26.109 21.3334 32 21.3334C37.891 21.3334 42.6667 26.109 42.6667 32.0001C42.6667 37.8911 37.891 42.6667 32 42.6667ZM32 37.3334C34.9455 37.3334 37.3333 34.9456 37.3333 32.0001C37.3333 29.0546 34.9455 26.6667 32 26.6667C29.0545 26.6667 26.6667 29.0546 26.6667 32.0001C26.6667 34.9456 29.0545 37.3334 32 37.3334Z" fill="#244B5A"/>
</g>
</svg>
