<svg width="64" height="64" viewBox="0 0 64 64" fill="none" xmlns="http://www.w3.org/2000/svg">
<g id="timer 1">
<path id="Vector" fill-rule="evenodd" clip-rule="evenodd" d="M30.6186 26.8474C31.0592 26.7296 31.5222 26.6667 32 26.6667C34.9455 26.6667 37.3333 29.0546 37.3333 32.0001C37.3333 34.9456 34.9455 37.3334 32 37.3334C29.0545 37.3334 26.6667 34.9456 26.6667 32.0001C26.6667 31.5223 26.7295 31.0592 26.8473 30.6186L16.7811 20.5524L20.5523 16.7811L30.6186 26.8474ZM34.6667 8.14656V18.6667H29.3333V2.66675H32C48.2004 2.66675 61.3333 15.7997 61.3333 32.0001C61.3333 48.2004 48.2004 61.3334 32 61.3334C15.7997 61.3334 2.66667 48.2004 2.66667 32.0001C2.66667 24.0976 5.80971 16.6864 11.2971 11.2194L15.0613 14.9977C10.5684 19.4739 8.00001 25.5301 8.00001 32.0001C8.00001 45.2549 18.7452 56.0001 32 56.0001C45.2548 56.0001 56 45.2549 56 32.0001C56 19.6466 46.6665 9.47308 34.6667 8.14656Z" fill="#244B5A"/>
</g>
</svg>
